M48
;DRILL file {Pcbnew (2013-jul-07)-stable} date So 08 Feb 2015 13:55:24 CET
;FORMAT={-:-/ absolute / metric / decimal}
FMAT,2
METRIC,TZ
T1C0.635
T2C0.813
T3C1.300
%
G90
G05
M71
T1
X143.129Y52.705
X143.129Y54.991
X149.098Y59.563
X149.352Y56.261
X150.368Y62.738
X159.131Y57.912
X161.671Y54.483
X163.83Y66.04
T2
X145.796Y55.372
X145.796Y57.912
X145.796Y60.452
X161.29Y50.8
X163.83Y50.8
T3
X142.319Y73.091
X144.92Y74.092
X147.919Y80.792
X152.42Y69.792
X152.42Y76.492
X160.099Y73.091
X162.7Y74.092
X165.699Y80.792
X170.2Y69.792
X170.2Y76.492
T0
M30
